<svg xmlns="http://www.w3.org/2000/svg" version="1.1" xmlns:xlink="http://www.w3.org/1999/xlink" xmlns:svgjs="http://svgjs.dev/svgjs" width="1000" height="1000" viewBox="0 0 1000 1000"><rect width="1000" height="1000" fill="#282634"></rect><g transform="matrix(0.7,0,0,0.7,149.57575757575756,282.1265587044535)"><svg viewBox="0 0 396 247" data-background-color="#282634" preserveAspectRatio="xMidYMid meet" height="623" width="1000" xmlns="http://www.w3.org/2000/svg" xmlns:xlink="http://www.w3.org/1999/xlink"><g id="tight-bounds" transform="matrix(1,0,0,1,0.2400000000000091,-0.09999999999999432)"><svg viewBox="0 0 395.52 247.2" height="247.2" width="395.52"><g><svg></svg></g><g><svg viewBox="0 0 395.52 247.2" height="247.2" width="395.52"><g transform="matrix(1,0,0,1,129.06692307692308,37.08)"><svg viewBox="0 0 137.38615384615383 173.04" height="173.04" width="137.38615384615383"><g><svg viewBox="0 0 137.38615384615383 173.04" height="173.04" width="137.38615384615383"><g><svg viewBox="0 0 137.38615384615383 173.04" height="173.04" width="137.38615384615383"><g><svg viewBox="0 0 137.38615384615383 173.04" height="173.04" width="137.38615384615383"><g><svg viewBox="0 0 137.38615384615383 173.04" height="173.04" width="137.38615384615383"><g><svg viewBox="0 0 137.38615384615383 173.04" height="173.04" width="137.38615384615383"><g transform="matrix(1,0,0,1,0,0)"><svg width="137.38615384615383" viewBox="3.6100001335144043 -35.54999923706055 28.229999542236328 35.54999923706055" height="173.04" data-palette-color="#038bf9"><path d="M24.51 0L13.82-15.36 9.79-11.08 9.79 0 3.61 0 3.61-35.55 9.79-35.55 9.79-18.87 13.21-23.1 23.61-35.55 31.08-35.55 17.87-19.8 31.84 0 24.51 0Z" opacity="1" transform="matrix(1,0,0,1,0,0)" fill="#038bf9" class="undefined-text-0" data-fill-palette-color="primary" id="text-0"></path></svg></g></svg></g></svg></g></svg></g></svg></g></svg></g></svg></g><g mask="url(#3935c4c0-2a37-4e2c-8e24-c0114d4c6e36)"><g transform="matrix(4.372444444444445, 0, 0, 4.372444444444445, 0.9999999999999716, 12.539912779066285)"><svg xmlns="http://www.w3.org/2000/svg" xmlns:xlink="http://www.w3.org/1999/xlink" version="1.1" x="0" y="0" viewBox="0 0 90 50.79999923706055" enable-background="new 0 0 90 50.8" xml:space="preserve" width="90" height="50.79999923706055" class="icon-none" data-fill-palette-color="accent" id="none"><g fill="#dcdcdc" data-fill-palette-color="accent"><g fill="#dcdcdc" data-fill-palette-color="accent"><path fill-rule="evenodd" clip-rule="evenodd" d="M80 2.3C80 1 78.9 0 77.6 0H12.3C11 0 10 1 10 2.3v44.3h70V2.3zM44.6 0.8c0.7 0 1.2 0.6 1.2 1.3 0 0.7-0.6 1.3-1.2 1.3-0.7 0-1.2-0.6-1.2-1.3C43.3 1.4 43.9 0.8 44.6 0.8zM75.8 42.5H14.2V4.2h61.6V42.5zM52 47.5c-0.1 0.6-0.5 0.8-1.1 0.8H39.1c-0.6 0-1-0.2-1.1-0.8H0v1.6c0 0.9 6.3 1.7 14 1.7h62c7.7 0 14-0.8 14-1.7v-1.6H52zM60.8 22.2l-11.6-4.9v3.2l8 3.1-8 3.1v3.2l11.6-4.9V22.2zM43.2 32c0.3 0 0.5-0.1 0.7-0.2 0.2-0.1 0.3-0.3 0.4-0.6 0.1-0.2 0.2-0.6 0.3-1l3.1-12.9c0.2-0.6 0.2-1 0.2-1.3 0-0.3-0.1-0.6-0.3-0.7C47.4 15 47.1 15 46.8 15c-0.4 0-0.7 0.1-0.9 0.4-0.1 0.3-0.3 0.7-0.5 1.4l-3.1 12.9c-0.1 0.7-0.2 1.1-0.2 1.3C42.1 31.6 42.4 32 43.2 32zM40.8 26.6l-8-3.1 8-3v-3.2l-11.7 4.9v2.7l11.7 4.9V26.6z" fill="#dcdcdc" data-fill-palette-color="accent"></path></g></g></svg></g></g></svg></g><defs><mask id="3935c4c0-2a37-4e2c-8e24-c0114d4c6e36"><rect width="640" height="400" fill="white"></rect><rect width="151.12476923076923" height="254.74118208" fill="black" x="244.43761538461538" y="72.62940896" id="transform-me" transform="matrix(1,0,0,1,-122.24000000000001,-76.4)"></rect></mask></defs></svg><rect width="395.52" height="247.2" fill="none" stroke="none" visibility="hidden"></rect></g></svg></g></svg>